<svg xmlns="http://www.w3.org/2000/svg" width="128" height="39.207" viewBox="0 0 128 39.207"><g id="Grupo_809" data-name="Grupo 809" transform="translate(-207.898 -166.667)"><path id="Caminho_748" data-name="Caminho 748" d="M296.046,166.947a19.6,19.6,0,1,0,20.083,19.59A19.841,19.841,0,0,0,296.046,166.947Zm0,29.649A10.074,10.074,0,1,1,306.6,186.533,10.319,10.319,0,0,1,296.043,196.6Z" transform="translate(-61.66 -0.254)" fill="#5ea3ac"></path><path id="Caminho_749" data-name="Caminho 749" d="M540.608,310.061l15.4,6.123-15.4,6.114Z" transform="translate(-301.403 -129.901)" fill="#ea6360"></path><path id="Caminho_750" data-name="Caminho 750" d="M601.685,334.457c0-.018,0-.036,0-.055s0-.037,0-.056l-10.5-4.176a9.633,9.633,0,0,1,0,8.456Z" transform="translate(-347.218 -148.119)" fill="#b24545"></path><path id="Caminho_751" data-name="Caminho 751" d="M234.385,166.693l-5.984,0c-1.07,0-2.139,0-3.209-.009-5.7-.037-11.41-.011-17.115-.015-.154,0-.179.049-.179.187,0,1.723,0,3.389,0,5.112a5.071,5.071,0,0,0,.06.968,4.807,4.807,0,0,0,1.814,2.971,4.643,4.643,0,0,0,2.822,1.005c.512.008,1.024.008,1.536.009v0h2.6A20.156,20.156,0,0,1,234.385,166.693Z" fill="#0e3758"></path><g id="Grupo_389" data-name="Grupo 389" transform="translate(261.95 170.499)"><g id="Grupo_387" data-name="Grupo 387" transform="translate(0 23.35)"><path id="Caminho_752" data-name="Caminho 752" d="M784.639,481.933a2.153,2.153,0,0,1-.888-.179,1.668,1.668,0,0,1-.674-.552h-.055a6.676,6.676,0,0,1,.055.826v2.048h-.754v-7.21h.613l.1.681h.036a1.75,1.75,0,0,1,.676-.59,2.057,2.057,0,0,1,.885-.182,1.839,1.839,0,0,1,1.528.676,3.6,3.6,0,0,1-.009,3.8A1.843,1.843,0,0,1,784.639,481.933Zm-.109-4.517a1.336,1.336,0,0,0-1.1.422,2.173,2.173,0,0,0-.35,1.344v.168a2.49,2.49,0,0,0,.35,1.5,1.33,1.33,0,0,0,1.121.452,1.166,1.166,0,0,0,1.01-.522,2.476,2.476,0,0,0,.365-1.439,2.383,2.383,0,0,0-.365-1.428A1.2,1.2,0,0,0,784.53,477.415Z" transform="translate(-782.324 -474.777)" fill="#0e3758"></path><path id="Caminho_753" data-name="Caminho 753" d="M847.485,462.61h-.754v-7.064h.754Z" transform="translate(-840.671 -455.545)" fill="#0e3758"></path><path id="Caminho_754" data-name="Caminho 754" d="M875.763,477.74v3.228a1.3,1.3,0,0,0,.277.908,1.128,1.128,0,0,0,.867.3,1.415,1.415,0,0,0,1.142-.427,2.152,2.152,0,0,0,.361-1.394V477.74h.754v4.976h-.622l-.109-.667h-.041a1.5,1.5,0,0,1-.642.563,2.16,2.16,0,0,1-.938.2,1.9,1.9,0,0,1-1.36-.431A1.836,1.836,0,0,1,875,481V477.74Z" transform="translate(-866.279 -475.652)" fill="#0e3758"></path><path id="Caminho_755" data-name="Caminho 755" d="M938.267,476.866v.477l-.922.109a1.618,1.618,0,0,1,.327.994,1.471,1.471,0,0,1-.5,1.167,2.015,2.015,0,0,1-1.371.436,2.278,2.278,0,0,1-.418-.036.742.742,0,0,0-.481.64.325.325,0,0,0,.168.3,1.225,1.225,0,0,0,.577.1h.881a1.973,1.973,0,0,1,1.242.34,1.183,1.183,0,0,1,.434.99,1.413,1.413,0,0,1-.663,1.26,3.549,3.549,0,0,1-1.934.434,2.642,2.642,0,0,1-1.505-.363,1.173,1.173,0,0,1-.529-1.026,1.152,1.152,0,0,1,.291-.786,1.48,1.48,0,0,1,.817-.449.787.787,0,0,1-.32-.268.708.708,0,0,1-.129-.422.8.8,0,0,1,.145-.477,1.525,1.525,0,0,1,.459-.395,1.344,1.344,0,0,1-.629-.54,1.588,1.588,0,0,1-.243-.872,1.611,1.611,0,0,1,.49-1.26,2,2,0,0,1,1.389-.443,2.528,2.528,0,0,1,.7.091Zm-3.968,5.811a.675.675,0,0,0,.341.613,1.88,1.88,0,0,0,.976.209,2.724,2.724,0,0,0,1.405-.284.869.869,0,0,0,.456-.77.609.609,0,0,0-.25-.561,1.939,1.939,0,0,0-.94-.157h-.9a1.191,1.191,0,0,0-.8.245A.876.876,0,0,0,934.3,482.677Zm.409-4.218a1.013,1.013,0,0,0,.3.79,1.178,1.178,0,0,0,.822.268.961.961,0,0,0,1.1-1.071.989.989,0,0,0-1.117-1.121,1.106,1.106,0,0,0-.817.286A1.152,1.152,0,0,0,934.707,478.459Z" transform="translate(-919.34 -474.777)" fill="#0e3758"></path><path id="Caminho_756" data-name="Caminho 756" d="M1014.878,519.563a.677.677,0,0,1,.138-.461.5.5,0,0,1,.4-.157.537.537,0,0,1,.411.157.649.649,0,0,1,.148.461.637.637,0,0,1-.15.454.6.6,0,0,1-.792.016A.622.622,0,0,1,1014.878,519.563Z" transform="translate(-992.995 -512.98)" fill="#0e3758"></path><path id="Caminho_757" data-name="Caminho 757" d="M1055.365,471.082a2.456,2.456,0,0,0,.386-.03,2.484,2.484,0,0,0,.295-.061v.577a1.375,1.375,0,0,1-.361.1,2.713,2.713,0,0,1-.429.039q-1.444,0-1.444-1.521v-2.96h-.713v-.363l.713-.313.318-1.062h.436v1.153h1.444v.586h-1.444v2.928a1.007,1.007,0,0,0,.213.69A.743.743,0,0,0,1055.365,471.082Z" transform="translate(-1027.621 -464.549)" fill="#0e3758"></path><path id="Caminho_758" data-name="Caminho 758" d="M1102.339,462.61v-3.219a1.3,1.3,0,0,0-.277-.908,1.128,1.128,0,0,0-.867-.3,1.421,1.421,0,0,0-1.146.427,2.163,2.163,0,0,0-.361,1.4v2.6h-.754v-7.064h.754v2.138a4.689,4.689,0,0,1-.036.64h.045a1.536,1.536,0,0,1,.633-.565,2.058,2.058,0,0,1,.938-.207,1.92,1.92,0,0,1,1.369.434,1.826,1.826,0,0,1,.456,1.378v3.246Z" transform="translate(-1069.142 -455.545)" fill="#0e3758"></path><path id="Caminho_759" data-name="Caminho 759" d="M1162.861,458.6a.5.5,0,0,1,.127-.379.471.471,0,0,1,.631,0,.492.492,0,0,1,.132.377.5.5,0,0,1-.132.379.461.461,0,0,1-.631,0A.51.51,0,0,1,1162.861,458.6Zm.817,6.324h-.754V459.95h.754Z" transform="translate(-1127.054 -457.861)" fill="#0e3758"></path><path id="Caminho_760" data-name="Caminho 760" d="M1195.889,481.842v-3.219a1.3,1.3,0,0,0-.277-.908,1.128,1.128,0,0,0-.867-.3,1.431,1.431,0,0,0-1.144.422,2.132,2.132,0,0,0-.363,1.394v2.611h-.754v-4.976h.613l.123.681h.036a1.539,1.539,0,0,1,.649-.57,2.11,2.11,0,0,1,.931-.2,1.89,1.89,0,0,1,1.353.434,1.845,1.845,0,0,1,.454,1.387v3.246Z" transform="translate(-1153.889 -474.777)" fill="#0e3758"></path><path id="Caminho_761" data-name="Caminho 761" d="M1257.832,460.063a8.857,8.857,0,0,1,.595-.726l1.607-1.7h.895l-2.016,2.12,2.157,2.856h-.913l-1.757-2.352-.568.49v1.861h-.745v-7.064h.745v3.746q0,.25-.036.772Z" transform="translate(-1212.413 -455.545)" fill="#0e3758"></path><path id="Caminho_762" data-name="Caminho 762" d="M1329.514,519.563a.676.676,0,0,1,.139-.461.5.5,0,0,1,.4-.157.538.538,0,0,1,.411.157.65.65,0,0,1,.148.461.637.637,0,0,1-.15.454.6.6,0,0,1-.792.016A.622.622,0,0,1,1329.514,519.563Z" transform="translate(-1278.025 -512.98)" fill="#0e3758"></path><path id="Caminho_763" data-name="Caminho 763" d="M1377.049,481.933a2.153,2.153,0,0,1-.888-.179,1.669,1.669,0,0,1-.674-.552h-.054a6.663,6.663,0,0,1,.054.826v2.048h-.753v-7.21h.613l.1.681h.036a1.751,1.751,0,0,1,.677-.59,2.058,2.058,0,0,1,.885-.182,1.839,1.839,0,0,1,1.528.676,3.6,3.6,0,0,1-.009,3.8A1.842,1.842,0,0,1,1377.049,481.933Zm-.109-4.517a1.336,1.336,0,0,0-1.1.422,2.175,2.175,0,0,0-.35,1.344v.168a2.492,2.492,0,0,0,.35,1.5,1.33,1.33,0,0,0,1.122.452,1.166,1.166,0,0,0,1.01-.522,2.476,2.476,0,0,0,.366-1.439,2.383,2.383,0,0,0-.366-1.428A1.2,1.2,0,0,0,1376.939,477.415Z" transform="translate(-1318.989 -474.777)" fill="#0e3758"></path><path id="Caminho_764" data-name="Caminho 764" d="M1439.895,462.61h-.754v-7.064h.754Z" transform="translate(-1377.337 -455.545)" fill="#0e3758"></path><path id="Caminho_765" data-name="Caminho 765" d="M1467.463,481.929l-.15-.708h-.036a2.094,2.094,0,0,1-.742.633,2.264,2.264,0,0,1-.924.166,1.662,1.662,0,0,1-1.16-.381,1.391,1.391,0,0,1-.42-1.085q0-1.507,2.411-1.58l.845-.027v-.309a1.262,1.262,0,0,0-.252-.865,1.037,1.037,0,0,0-.806-.279,3.283,3.283,0,0,0-1.407.381l-.232-.577a3.546,3.546,0,0,1,.806-.313,3.491,3.491,0,0,1,.879-.114,1.9,1.9,0,0,1,1.319.4,1.648,1.648,0,0,1,.429,1.267v3.4Zm-1.7-.531a1.53,1.53,0,0,0,1.105-.386,1.428,1.428,0,0,0,.4-1.081v-.45l-.754.032a2.743,2.743,0,0,0-1.3.279.842.842,0,0,0-.4.77.776.776,0,0,0,.247.622A1.026,1.026,0,0,0,1465.761,481.4Z" transform="translate(-1399.885 -474.864)" fill="#0e3758"></path><path id="Caminho_766" data-name="Caminho 766" d="M1518.5,477.74h.808l1.09,2.838a10.813,10.813,0,0,1,.445,1.4h.036q.059-.232.247-.792t1.233-3.448h.808l-2.138,5.666a2.829,2.829,0,0,1-.742,1.192,1.58,1.58,0,0,1-1.042.352,3.027,3.027,0,0,1-.681-.077v-.6a2.626,2.626,0,0,0,.558.055,1.151,1.151,0,0,0,1.108-.872l.277-.708Z" transform="translate(-1449.231 -475.652)" fill="#0e3758"></path></g><g id="Grupo_388" data-name="Grupo 388" transform="translate(0.168 0)"><path id="Caminho_767" data-name="Caminho 767" d="M794.061,226.843a9.024,9.024,0,0,1-4.4,1.1,5.168,5.168,0,0,1-5.556-5.525V207.4h5.373v4.579h4.3v3.6h-4.3v5.983c0,1.343.611,1.984,1.618,1.984a4.218,4.218,0,0,0,1.923-.55Z" transform="translate(-784.109 -207.398)" fill="#0e3758"></path><path id="Caminho_768" data-name="Caminho 768" d="M910.431,256.453l3.053,2.747a9.45,9.45,0,0,1-7.571,3.358c-5.342,0-8.914-3.327-8.914-8.364,0-5.067,3.327-8.486,8.608-8.517,4.945-.031,8.211,2.992,8.334,7.876l-11.05,2.656a3.55,3.55,0,0,0,3.419,2.259A5.676,5.676,0,0,0,910.431,256.453Zm-7.967-3.236,6.136-1.526a2.674,2.674,0,0,0-2.747-2.167C903.9,249.523,902.646,250.836,902.463,253.217Z" transform="translate(-886.376 -242.075)" fill="#0e3758"></path><path id="Caminho_769" data-name="Caminho 769" d="M1108.878,245.354v4.976c-3.022-.305-5.037,1.038-5.312,3.327v8.425h-5.434V245.568h5.434v2.747A5.939,5.939,0,0,1,1108.878,245.354Z" transform="translate(-1068.584 -241.782)" fill="#0e3758"></path><path id="Caminho_770" data-name="Caminho 770" d="M1234.906,254.1c0,5.1-3.6,8.456-9.036,8.456s-9.005-3.358-9.005-8.456c0-5.067,3.572-8.425,9.005-8.425S1234.906,249.037,1234.906,254.1Zm-12.577.061c0,2.473,1.435,4.121,3.541,4.121,2.137,0,3.572-1.648,3.572-4.121,0-2.442-1.435-4.091-3.572-4.091C1223.764,250.075,1222.329,251.723,1222.329,254.165Z" transform="translate(-1176.144 -242.077)" fill="#0e3758"></path><path id="Caminho_771" data-name="Caminho 771" d="M1422.109,248.815c-.916,0-1.557.336-1.557,1.038,0,2.167,8.669,1.13,8.639,6.868,0,3.388-2.961,5.312-6.991,5.312a12.176,12.176,0,0,1-7.448-2.351l1.709-3.51a10.729,10.729,0,0,0,5.861,2.045c1.007,0,1.74-.336,1.74-1.007,0-2.259-8.517-1.129-8.517-6.838,0-3.449,2.9-5.342,6.777-5.342a13.413,13.413,0,0,1,6.868,1.923l-1.832,3.541A12.527,12.527,0,0,0,1422.109,248.815Z" transform="translate(-1355.411 -241.489)" fill="#0e3758"></path></g></g></g></svg>